<mxfile host="Electron" agent="Mozilla/5.0 (Windows NT 10.0; Win64; x64) AppleWebKit/537.36 (KHTML, like Gecko) draw.io/28.1.2 Chrome/138.0.7204.243 Electron/37.4.0 Safari/537.36" version="28.1.2">
  <diagram name="Page-1" id="_2r_T58i7aVis9P6aA-V">
    <mxGraphModel dx="2587" dy="2143" grid="1" gridSize="10" guides="1" tooltips="1" connect="1" arrows="1" fold="1" page="1" pageScale="1" pageWidth="850" pageHeight="1100" math="0" shadow="0">
      <root>
        <mxCell id="0" />
        <mxCell id="1" parent="0" />
        <mxCell id="3l4uTkI3BJ61R9vHj9WP-1" value="" style="rounded=0;whiteSpace=wrap;html=1;dashed=1;" vertex="1" parent="1">
          <mxGeometry x="-275" y="120" width="160" height="610" as="geometry" />
        </mxCell>
        <mxCell id="3l4uTkI3BJ61R9vHj9WP-2" value="&lt;font style=&quot;font-size: 24px;&quot; face=&quot;Times New Roman&quot;&gt;High Level Architechture&lt;/font&gt;" style="text;html=1;align=center;verticalAlign=middle;resizable=0;points=[];autosize=1;strokeColor=none;fillColor=none;" vertex="1" parent="1">
          <mxGeometry x="-352.23" y="-60" width="270" height="40" as="geometry" />
        </mxCell>
        <mxCell id="3l4uTkI3BJ61R9vHj9WP-4" value="&lt;font style=&quot;font-size: 24px;&quot;&gt;Sources&lt;/font&gt;" style="text;html=1;align=center;verticalAlign=middle;resizable=0;points=[];autosize=1;strokeColor=none;fillColor=#FFFFFF;" vertex="1" parent="1">
          <mxGeometry x="-250" y="100" width="110" height="40" as="geometry" />
        </mxCell>
        <mxCell id="3l4uTkI3BJ61R9vHj9WP-5" value="" style="rounded=0;whiteSpace=wrap;html=1;fillColor=none;dashed=1;strokeColor=#4D4D4D;" vertex="1" parent="1">
          <mxGeometry x="-35" y="120" width="625" height="610" as="geometry" />
        </mxCell>
        <mxCell id="3l4uTkI3BJ61R9vHj9WP-6" value="&lt;font style=&quot;font-size: 24px;&quot;&gt;Data Warehouse&lt;/font&gt;" style="text;html=1;align=center;verticalAlign=middle;resizable=0;points=[];autosize=1;strokeColor=none;fillColor=#FFFFFF;" vertex="1" parent="1">
          <mxGeometry x="130" y="100" width="200" height="40" as="geometry" />
        </mxCell>
        <mxCell id="3l4uTkI3BJ61R9vHj9WP-7" value="" style="rounded=0;whiteSpace=wrap;html=1;dashed=1;" vertex="1" parent="1">
          <mxGeometry x="730" y="134" width="170" height="610" as="geometry" />
        </mxCell>
        <mxCell id="3l4uTkI3BJ61R9vHj9WP-8" value="&lt;font style=&quot;font-size: 24px;&quot;&gt;Consume&lt;/font&gt;" style="text;html=1;align=center;verticalAlign=middle;resizable=0;points=[];autosize=1;strokeColor=none;fillColor=#FFFFFF;" vertex="1" parent="1">
          <mxGeometry x="760" y="110" width="130" height="40" as="geometry" />
        </mxCell>
        <mxCell id="3l4uTkI3BJ61R9vHj9WP-9" value="&lt;font style=&quot;font-size: 20px;&quot;&gt;&lt;b&gt;Bronze Layer&lt;/b&gt;&lt;/font&gt;" style="rounded=0;whiteSpace=wrap;html=1;dashed=1;strokeColor=#d79b00;fillColor=#ffcd28;gradientColor=#ffa500;" vertex="1" parent="1">
          <mxGeometry x="-10" y="140" width="140" height="50" as="geometry" />
        </mxCell>
        <mxCell id="3l4uTkI3BJ61R9vHj9WP-10" value="" style="rounded=0;whiteSpace=wrap;html=1;dashed=1;" vertex="1" parent="1">
          <mxGeometry x="-10" y="200" width="160" height="520" as="geometry" />
        </mxCell>
        <mxCell id="3l4uTkI3BJ61R9vHj9WP-11" value="&lt;font style=&quot;font-size: 20px;&quot;&gt;&lt;b&gt;Silver Layer&lt;/b&gt;&lt;/font&gt;" style="rounded=0;whiteSpace=wrap;html=1;dashed=1;strokeColor=#666666;fillColor=#f5f5f5;gradientColor=#b3b3b3;" vertex="1" parent="1">
          <mxGeometry x="199.5" y="140" width="140" height="50" as="geometry" />
        </mxCell>
        <mxCell id="3l4uTkI3BJ61R9vHj9WP-12" value="" style="rounded=0;whiteSpace=wrap;html=1;dashed=1;" vertex="1" parent="1">
          <mxGeometry x="184.5" y="200" width="170" height="520" as="geometry" />
        </mxCell>
        <mxCell id="3l4uTkI3BJ61R9vHj9WP-13" value="&lt;font style=&quot;font-size: 20px;&quot;&gt;&lt;b&gt;Gold Layer&lt;/b&gt;&lt;/font&gt;" style="rounded=0;whiteSpace=wrap;html=1;dashed=1;strokeColor=#d6b656;fillColor=#fff2cc;gradientColor=#ffd966;" vertex="1" parent="1">
          <mxGeometry x="425" y="134" width="140" height="50" as="geometry" />
        </mxCell>
        <mxCell id="3l4uTkI3BJ61R9vHj9WP-14" value="" style="rounded=0;whiteSpace=wrap;html=1;dashed=1;" vertex="1" parent="1">
          <mxGeometry x="425" y="200" width="155" height="520" as="geometry" />
        </mxCell>
        <mxCell id="3l4uTkI3BJ61R9vHj9WP-15" value="&lt;b&gt;CRM&lt;/b&gt;" style="image;aspect=fixed;html=1;points=[];align=center;fontSize=12;image=img/lib/azure2/general/Folder_Blank.svg;" vertex="1" parent="1">
          <mxGeometry x="-251.73" y="240" width="69" height="56.00000000000001" as="geometry" />
        </mxCell>
        <mxCell id="3l4uTkI3BJ61R9vHj9WP-16" value="" style="image;aspect=fixed;html=1;points=[];align=center;fontSize=12;image=img/lib/azure2/general/File.svg;" vertex="1" parent="1">
          <mxGeometry x="-209.99999999999997" y="256" width="32.46" height="40" as="geometry" />
        </mxCell>
        <mxCell id="3l4uTkI3BJ61R9vHj9WP-17" value="&lt;b&gt;ERP&lt;/b&gt;" style="image;aspect=fixed;html=1;points=[];align=center;fontSize=12;image=img/lib/azure2/general/Folder_Blank.svg;" vertex="1" parent="1">
          <mxGeometry x="-251.73" y="360" width="69" height="56.00000000000001" as="geometry" />
        </mxCell>
        <mxCell id="3l4uTkI3BJ61R9vHj9WP-18" value="" style="image;aspect=fixed;html=1;points=[];align=center;fontSize=12;image=img/lib/azure2/general/File.svg;" vertex="1" parent="1">
          <mxGeometry x="-209.99999999999997" y="376" width="32.46" height="40" as="geometry" />
        </mxCell>
        <mxCell id="3l4uTkI3BJ61R9vHj9WP-19" value="" style="endArrow=none;html=1;rounded=0;strokeColor=#343434;" edge="1" parent="1">
          <mxGeometry width="50" height="50" relative="1" as="geometry">
            <mxPoint x="-263.77" y="470" as="sourcePoint" />
            <mxPoint x="-143.77" y="470" as="targetPoint" />
            <Array as="points">
              <mxPoint x="-203.77" y="470" />
            </Array>
          </mxGeometry>
        </mxCell>
        <mxCell id="3l4uTkI3BJ61R9vHj9WP-20" value="Object Type : CSV Files&lt;div&gt;&lt;br&gt;&lt;div&gt;Interface : Files in Folder&lt;/div&gt;&lt;/div&gt;" style="text;html=1;align=center;verticalAlign=middle;whiteSpace=wrap;rounded=0;" vertex="1" parent="1">
          <mxGeometry x="-263.77" y="550" width="140" height="30" as="geometry" />
        </mxCell>
        <mxCell id="3l4uTkI3BJ61R9vHj9WP-21" value="" style="html=1;verticalLabelPosition=bottom;align=center;labelBackgroundColor=#ffffff;verticalAlign=top;strokeWidth=2;strokeColor=#d79b00;shadow=0;dashed=0;shape=mxgraph.ios7.icons.data;fillColor=#ffcd28;gradientColor=#ffa500;" vertex="1" parent="1">
          <mxGeometry x="29.5" y="316" width="61" height="80" as="geometry" />
        </mxCell>
        <mxCell id="3l4uTkI3BJ61R9vHj9WP-22" value="" style="html=1;verticalLabelPosition=bottom;align=center;labelBackgroundColor=#ffffff;verticalAlign=top;strokeWidth=2;strokeColor=#666666;shadow=0;dashed=0;shape=mxgraph.ios7.icons.data;fillColor=#f5f5f5;gradientColor=#b3b3b3;" vertex="1" parent="1">
          <mxGeometry x="247" y="315" width="61" height="80" as="geometry" />
        </mxCell>
        <mxCell id="3l4uTkI3BJ61R9vHj9WP-23" value="" style="html=1;verticalLabelPosition=bottom;align=center;labelBackgroundColor=#ffffff;verticalAlign=top;strokeWidth=2;strokeColor=#d6b656;shadow=0;dashed=0;shape=mxgraph.ios7.icons.data;fillColor=#fff2cc;gradientColor=#ffd966;" vertex="1" parent="1">
          <mxGeometry x="470" y="320" width="61" height="80" as="geometry" />
        </mxCell>
        <mxCell id="3l4uTkI3BJ61R9vHj9WP-24" value="" style="shape=mxgraph.arrows.arrow_right;html=1;verticalLabelPosition=bottom;verticalAlign=top;strokeWidth=2;strokeColor=#6c8ebf;fillColor=#dae8fc;" vertex="1" parent="1">
          <mxGeometry x="-110" y="340" width="80" height="30" as="geometry" />
        </mxCell>
        <mxCell id="3l4uTkI3BJ61R9vHj9WP-25" value="" style="shape=mxgraph.arrows.arrow_right;html=1;verticalLabelPosition=bottom;verticalAlign=top;strokeWidth=2;strokeColor=#6c8ebf;fillColor=#dae8fc;" vertex="1" parent="1">
          <mxGeometry x="130" y="340" width="80" height="30" as="geometry" />
        </mxCell>
        <mxCell id="3l4uTkI3BJ61R9vHj9WP-26" value="" style="shape=mxgraph.arrows.arrow_right;html=1;verticalLabelPosition=bottom;verticalAlign=top;strokeWidth=2;strokeColor=#6c8ebf;fillColor=#dae8fc;" vertex="1" parent="1">
          <mxGeometry x="340" y="340" width="85" height="30" as="geometry" />
        </mxCell>
        <mxCell id="3l4uTkI3BJ61R9vHj9WP-27" value="" style="shape=mxgraph.arrows.arrow_right;html=1;verticalLabelPosition=bottom;verticalAlign=top;strokeWidth=2;strokeColor=#6c8ebf;fillColor=#dae8fc;" vertex="1" parent="1">
          <mxGeometry x="565" y="345" width="185" height="30" as="geometry" />
        </mxCell>
        <mxCell id="3l4uTkI3BJ61R9vHj9WP-28" value="&lt;font style=&quot;font-size: 14px;&quot;&gt;&lt;b&gt;Raw Data&lt;/b&gt;&lt;/font&gt;" style="text;html=1;align=center;verticalAlign=middle;whiteSpace=wrap;rounded=0;" vertex="1" parent="1">
          <mxGeometry x="21" y="400" width="69.5" height="30" as="geometry" />
        </mxCell>
        <mxCell id="3l4uTkI3BJ61R9vHj9WP-29" value="&lt;font style=&quot;font-size: 14px;&quot;&gt;&lt;b&gt;Cleaned, Standardized Data&lt;/b&gt;&lt;/font&gt;" style="text;html=1;align=center;verticalAlign=middle;whiteSpace=wrap;rounded=0;" vertex="1" parent="1">
          <mxGeometry x="184.5" y="410" width="180" height="30" as="geometry" />
        </mxCell>
        <mxCell id="3l4uTkI3BJ61R9vHj9WP-30" value="&lt;font style=&quot;font-size: 14px;&quot;&gt;&lt;b&gt;Business Ready Data&lt;/b&gt;&lt;/font&gt;" style="text;html=1;align=center;verticalAlign=middle;whiteSpace=wrap;rounded=0;" vertex="1" parent="1">
          <mxGeometry x="412.5" y="400" width="180" height="30" as="geometry" />
        </mxCell>
        <mxCell id="3l4uTkI3BJ61R9vHj9WP-31" value="" style="endArrow=none;html=1;rounded=0;strokeColor=#343434;" edge="1" parent="1">
          <mxGeometry width="50" height="50" relative="1" as="geometry">
            <mxPoint y="440" as="sourcePoint" />
            <mxPoint x="120" y="440" as="targetPoint" />
            <Array as="points">
              <mxPoint x="60" y="440" />
            </Array>
          </mxGeometry>
        </mxCell>
        <mxCell id="3l4uTkI3BJ61R9vHj9WP-32" value="" style="endArrow=none;html=1;rounded=0;strokeColor=#343434;" edge="1" parent="1">
          <mxGeometry width="50" height="50" relative="1" as="geometry">
            <mxPoint x="210" y="450" as="sourcePoint" />
            <mxPoint x="330" y="450" as="targetPoint" />
            <Array as="points">
              <mxPoint x="270" y="450" />
            </Array>
          </mxGeometry>
        </mxCell>
        <mxCell id="3l4uTkI3BJ61R9vHj9WP-33" value="" style="endArrow=none;html=1;rounded=0;strokeColor=#343434;" edge="1" parent="1">
          <mxGeometry width="50" height="50" relative="1" as="geometry">
            <mxPoint x="440.5" y="450" as="sourcePoint" />
            <mxPoint x="560.5" y="450" as="targetPoint" />
            <Array as="points">
              <mxPoint x="500.5" y="450" />
            </Array>
          </mxGeometry>
        </mxCell>
        <mxCell id="3l4uTkI3BJ61R9vHj9WP-34" value="&lt;div style=&quot;text-align: left;&quot;&gt;&lt;span style=&quot;background-color: transparent; color: light-dark(rgb(0, 0, 0), rgb(255, 255, 255));&quot;&gt;&lt;b&gt;Object Type : &lt;/b&gt;Table&lt;/span&gt;&lt;/div&gt;&lt;div&gt;&lt;b&gt;&lt;br&gt;&lt;/b&gt;&lt;div style=&quot;text-align: left;&quot;&gt;&lt;b&gt;Load :&amp;nbsp;&lt;/b&gt;&lt;/div&gt;&lt;div style=&quot;&quot;&gt;&lt;ul&gt;&lt;li&gt;&lt;span style=&quot;background-color: transparent; color: light-dark(rgb(0, 0, 0), rgb(255, 255, 255)); text-align: center;&quot;&gt;Batch Processing&lt;/span&gt;&lt;/li&gt;&lt;li&gt;&lt;span style=&quot;background-color: transparent; color: light-dark(rgb(0, 0, 0), rgb(255, 255, 255)); text-align: center;&quot;&gt;Full Load (trunc &amp;amp; Insert)&lt;/span&gt;&lt;/li&gt;&lt;/ul&gt;&lt;div style=&quot;text-align: left;&quot;&gt;&lt;b&gt;No Transformations&lt;/b&gt;&lt;/div&gt;&lt;div style=&quot;text-align: left;&quot;&gt;&lt;b&gt;&lt;br&gt;&lt;/b&gt;&lt;/div&gt;&lt;div style=&quot;text-align: left;&quot;&gt;&lt;b&gt;Data Model: &lt;/b&gt;None(As-is)&lt;/div&gt;&lt;/div&gt;&lt;/div&gt;" style="text;html=1;align=center;verticalAlign=middle;whiteSpace=wrap;rounded=0;" vertex="1" parent="1">
          <mxGeometry y="520" width="150" height="30" as="geometry" />
        </mxCell>
        <mxCell id="3l4uTkI3BJ61R9vHj9WP-38" style="edgeStyle=orthogonalEdgeStyle;rounded=0;orthogonalLoop=1;jettySize=auto;html=1;exitX=0.5;exitY=1;exitDx=0;exitDy=0;" edge="1" parent="1" source="3l4uTkI3BJ61R9vHj9WP-34" target="3l4uTkI3BJ61R9vHj9WP-34">
          <mxGeometry relative="1" as="geometry" />
        </mxCell>
        <mxCell id="3l4uTkI3BJ61R9vHj9WP-39" value="&lt;div style=&quot;text-align: left;&quot;&gt;&lt;span style=&quot;background-color: transparent; color: light-dark(rgb(0, 0, 0), rgb(255, 255, 255));&quot;&gt;&lt;b&gt;Object Type : &lt;/b&gt;Table&lt;/span&gt;&lt;/div&gt;&lt;div&gt;&lt;b&gt;&lt;br&gt;&lt;/b&gt;&lt;div style=&quot;text-align: left;&quot;&gt;&lt;b&gt;Load :&amp;nbsp;&lt;/b&gt;&lt;/div&gt;&lt;div style=&quot;&quot;&gt;&lt;ul&gt;&lt;li&gt;&lt;span style=&quot;background-color: transparent; color: light-dark(rgb(0, 0, 0), rgb(255, 255, 255)); text-align: center;&quot;&gt;Batch Processing&lt;/span&gt;&lt;/li&gt;&lt;li&gt;&lt;span style=&quot;background-color: transparent; color: light-dark(rgb(0, 0, 0), rgb(255, 255, 255)); text-align: center;&quot;&gt;Full Load (trunc &amp;amp; Insert)&lt;/span&gt;&lt;/li&gt;&lt;/ul&gt;&lt;div style=&quot;text-align: left;&quot;&gt;&lt;b&gt;Transformations:&lt;/b&gt;&lt;/div&gt;&lt;div style=&quot;text-align: left;&quot;&gt;&lt;ul&gt;&lt;li&gt;Data Cleansing&lt;/li&gt;&lt;li&gt;Data Standrization&lt;/li&gt;&lt;li&gt;Data Normalization&lt;/li&gt;&lt;li&gt;Derived Columns&lt;/li&gt;&lt;li&gt;Data Enrichment&lt;/li&gt;&lt;/ul&gt;&lt;/div&gt;&lt;div style=&quot;text-align: left;&quot;&gt;&lt;b&gt;&lt;br&gt;&lt;/b&gt;&lt;/div&gt;&lt;div style=&quot;text-align: left;&quot;&gt;&lt;b&gt;Data Model: &lt;/b&gt;None(As-is)&lt;/div&gt;&lt;/div&gt;&lt;/div&gt;" style="text;html=1;align=center;verticalAlign=middle;whiteSpace=wrap;rounded=0;" vertex="1" parent="1">
          <mxGeometry x="199.5" y="570" width="150" height="30" as="geometry" />
        </mxCell>
        <mxCell id="3l4uTkI3BJ61R9vHj9WP-40" value="&lt;div style=&quot;text-align: left;&quot;&gt;&lt;span style=&quot;background-color: transparent; color: light-dark(rgb(0, 0, 0), rgb(255, 255, 255));&quot;&gt;&lt;b&gt;Object Type : &lt;/b&gt;Views&lt;/span&gt;&lt;/div&gt;&lt;div&gt;&lt;b&gt;&lt;br&gt;&lt;/b&gt;&lt;div style=&quot;text-align: left;&quot;&gt;&lt;b&gt;No Load&lt;/b&gt;&lt;/div&gt;&lt;div style=&quot;text-align: left;&quot;&gt;&lt;b&gt;&lt;br&gt;&lt;/b&gt;&lt;/div&gt;&lt;div style=&quot;&quot;&gt;&lt;div style=&quot;text-align: left;&quot;&gt;&lt;b&gt;Transformations:&lt;/b&gt;&lt;/div&gt;&lt;div style=&quot;text-align: left;&quot;&gt;&lt;ul&gt;&lt;li&gt;Data Integrations&lt;/li&gt;&lt;li&gt;Aggregations&lt;/li&gt;&lt;li&gt;Business Logic&lt;/li&gt;&lt;/ul&gt;&lt;/div&gt;&lt;div style=&quot;text-align: left;&quot;&gt;&lt;b&gt;&lt;br&gt;&lt;/b&gt;&lt;/div&gt;&lt;div style=&quot;text-align: left;&quot;&gt;&lt;b&gt;Data Model:&lt;/b&gt;&lt;/div&gt;&lt;div style=&quot;text-align: left;&quot;&gt;&lt;ul&gt;&lt;li&gt;Star Schema&lt;/li&gt;&lt;li&gt;Flat Table&lt;/li&gt;&lt;li&gt;Aggregated Table&lt;/li&gt;&lt;/ul&gt;&lt;/div&gt;&lt;/div&gt;&lt;/div&gt;" style="text;html=1;align=center;verticalAlign=middle;whiteSpace=wrap;rounded=0;" vertex="1" parent="1">
          <mxGeometry x="430" y="570" width="150" height="30" as="geometry" />
        </mxCell>
        <UserObject label="&lt;img src=&quot;https://cdn-icons-png.flaticon.com/512/7641/7641218.png&quot; width=&quot;256&quot; height=&quot;256&quot; alt=&quot;&quot; title=&quot;&quot; class=&quot;img-small&quot; style=&quot;box-sizing: border-box; outline: none; border: 0px; max-width: 100%; height: auto; color: rgb(119, 119, 119); font-family: Inter, &amp;quot;Helvetica Neue&amp;quot;, Helvetica, Arial, sans-serif; font-size: 15px; font-style: normal; font-variant-ligatures: normal; font-variant-caps: normal; font-weight: 400; letter-spacing: normal; orphans: 2; text-align: center; text-indent: 0px; text-transform: none; widows: 2; word-spacing: 0px; -webkit-text-stroke-width: 0px; white-space: normal; background-color: rgb(247, 247, 247); text-decoration-thickness: initial; text-decoration-style: initial; text-decoration-color: initial;&quot;&gt;" link="&lt;img src=&quot;https://cdn-icons-png.flaticon.com/512/7641/7641218.png&quot; width=&quot;256&quot; height=&quot;256&quot; alt=&quot;&quot; title=&quot;&quot; class=&quot;img-small&quot; style=&quot;box-sizing: border-box; outline: none; border: 0px; max-width: 100%; height: auto; color: rgb(119, 119, 119); font-family: Inter, &amp;quot;Helvetica Neue&amp;quot;, Helvetica, Arial, sans-serif; font-size: 15px; font-style: normal; font-variant-ligatures: normal; font-variant-caps: normal; font-weight: 400; letter-spacing: normal; orphans: 2; text-align: center; text-indent: 0px; text-transform: none; widows: 2; word-spacing: 0px; -webkit-text-stroke-width: 0px; white-space: normal; background-color: rgb(247, 247, 247); text-decoration-thickness: initial; text-decoration-style: initial; text-decoration-color: initial;&quot;&gt;" id="3l4uTkI3BJ61R9vHj9WP-46">
          <mxCell style="text;whiteSpace=wrap;html=1;" vertex="1" parent="1">
            <mxGeometry x="760.5" y="482.5" width="89.75" height="105" as="geometry" />
          </mxCell>
        </UserObject>
        <mxCell id="3l4uTkI3BJ61R9vHj9WP-47" value="Machine Learning" style="text;html=1;align=center;verticalAlign=middle;whiteSpace=wrap;rounded=0;" vertex="1" parent="1">
          <mxGeometry x="765.25" y="590" width="99.5" height="30" as="geometry" />
        </mxCell>
        <UserObject label="&lt;img src=&quot;https://cdn-icons-png.flaticon.com/512/2920/2920349.png&quot; width=&quot;256&quot; height=&quot;256&quot; alt=&quot;&quot; title=&quot;&quot; class=&quot;img-small&quot; style=&quot;box-sizing: border-box; outline: none; border: 0px; max-width: 100%; height: auto; color: rgb(119, 119, 119); font-family: Inter, &amp;quot;Helvetica Neue&amp;quot;, Helvetica, Arial, sans-serif; font-size: 15px; font-style: normal; font-variant-ligatures: normal; font-variant-caps: normal; font-weight: 400; letter-spacing: normal; orphans: 2; text-align: center; text-indent: 0px; text-transform: none; widows: 2; word-spacing: 0px; -webkit-text-stroke-width: 0px; white-space: normal; background-color: rgb(247, 247, 247); text-decoration-thickness: initial; text-decoration-style: initial; text-decoration-color: initial;&quot;&gt;" link="&lt;img src=&quot;https://cdn-icons-png.flaticon.com/512/2920/2920349.png&quot; width=&quot;256&quot; height=&quot;256&quot; alt=&quot;&quot; title=&quot;&quot; class=&quot;img-small&quot; style=&quot;box-sizing: border-box; outline: none; border: 0px; max-width: 100%; height: auto; color: rgb(119, 119, 119); font-family: Inter, &amp;quot;Helvetica Neue&amp;quot;, Helvetica, Arial, sans-serif; font-size: 15px; font-style: normal; font-variant-ligatures: normal; font-variant-caps: normal; font-weight: 400; letter-spacing: normal; orphans: 2; text-align: center; text-indent: 0px; text-transform: none; widows: 2; word-spacing: 0px; -webkit-text-stroke-width: 0px; white-space: normal; background-color: rgb(247, 247, 247); text-decoration-thickness: initial; text-decoration-style: initial; text-decoration-color: initial;&quot;&gt;" id="3l4uTkI3BJ61R9vHj9WP-48">
          <mxCell style="text;whiteSpace=wrap;html=1;" vertex="1" parent="1">
            <mxGeometry x="770" y="306" width="80" height="90" as="geometry" />
          </mxCell>
        </UserObject>
        <mxCell id="3l4uTkI3BJ61R9vHj9WP-49" value="Ad-Hoc&amp;nbsp;&lt;div&gt;SQL Queries&lt;/div&gt;" style="text;html=1;align=center;verticalAlign=middle;whiteSpace=wrap;rounded=0;" vertex="1" parent="1">
          <mxGeometry x="760.5" y="416" width="99.5" height="30" as="geometry" />
        </mxCell>
        <UserObject label="&lt;img src=&quot;https://cdn-icons-png.flaticon.com/512/12238/12238464.png&quot; width=&quot;256&quot; height=&quot;256&quot; alt=&quot;&quot; title=&quot;&quot; class=&quot;img-small&quot; style=&quot;box-sizing: border-box; outline: none; border: 0px; max-width: 100%; height: auto; color: rgb(119, 119, 119); font-family: Inter, &amp;quot;Helvetica Neue&amp;quot;, Helvetica, Arial, sans-serif; font-size: 15px; font-style: normal; font-variant-ligatures: normal; font-variant-caps: normal; font-weight: 400; letter-spacing: normal; orphans: 2; text-align: center; text-indent: 0px; text-transform: none; widows: 2; word-spacing: 0px; -webkit-text-stroke-width: 0px; white-space: normal; background-color: rgb(247, 247, 247); text-decoration-thickness: initial; text-decoration-style: initial; text-decoration-color: initial;&quot;&gt;" link="&lt;img src=&quot;https://cdn-icons-png.flaticon.com/512/12238/12238464.png&quot; width=&quot;256&quot; height=&quot;256&quot; alt=&quot;&quot; title=&quot;&quot; class=&quot;img-small&quot; style=&quot;box-sizing: border-box; outline: none; border: 0px; max-width: 100%; height: auto; color: rgb(119, 119, 119); font-family: Inter, &amp;quot;Helvetica Neue&amp;quot;, Helvetica, Arial, sans-serif; font-size: 15px; font-style: normal; font-variant-ligatures: normal; font-variant-caps: normal; font-weight: 400; letter-spacing: normal; orphans: 2; text-align: center; text-indent: 0px; text-transform: none; widows: 2; word-spacing: 0px; -webkit-text-stroke-width: 0px; white-space: normal; background-color: rgb(247, 247, 247); text-decoration-thickness: initial; text-decoration-style: initial; text-decoration-color: initial;&quot;&gt;" id="3l4uTkI3BJ61R9vHj9WP-50">
          <mxCell style="text;whiteSpace=wrap;html=1;" vertex="1" parent="1">
            <mxGeometry x="770" y="150" width="90" height="100" as="geometry" />
          </mxCell>
        </UserObject>
        <mxCell id="3l4uTkI3BJ61R9vHj9WP-51" value="BI &amp;amp; Reporting" style="text;html=1;align=center;verticalAlign=middle;whiteSpace=wrap;rounded=0;" vertex="1" parent="1">
          <mxGeometry x="760.5" y="250" width="99.5" height="30" as="geometry" />
        </mxCell>
        <UserObject label="&lt;img src=&quot;https://cdn-icons-png.flaticon.com/512/5968/5968364.png&quot; width=&quot;256&quot; height=&quot;256&quot; alt=&quot;&quot; title=&quot;&quot; class=&quot;img-small&quot; style=&quot;box-sizing: border-box; outline: none; border: 0px; max-width: 100%; height: auto; color: rgb(119, 119, 119); font-family: Inter, &amp;quot;Helvetica Neue&amp;quot;, Helvetica, Arial, sans-serif; font-size: 15px; font-style: normal; font-variant-ligatures: normal; font-variant-caps: normal; font-weight: 400; letter-spacing: normal; orphans: 2; text-align: center; text-indent: 0px; text-transform: none; widows: 2; word-spacing: 0px; -webkit-text-stroke-width: 0px; white-space: normal; background-color: rgb(247, 247, 247); text-decoration-thickness: initial; text-decoration-style: initial; text-decoration-color: initial;&quot;&gt;" link="&lt;img src=&quot;https://cdn-icons-png.flaticon.com/512/5968/5968364.png&quot; width=&quot;256&quot; height=&quot;256&quot; alt=&quot;&quot; title=&quot;&quot; class=&quot;img-small&quot; style=&quot;box-sizing: border-box; outline: none; border: 0px; max-width: 100%; height: auto; color: rgb(119, 119, 119); font-family: Inter, &amp;quot;Helvetica Neue&amp;quot;, Helvetica, Arial, sans-serif; font-size: 15px; font-style: normal; font-variant-ligatures: normal; font-variant-caps: normal; font-weight: 400; letter-spacing: normal; orphans: 2; text-align: center; text-indent: 0px; text-transform: none; widows: 2; word-spacing: 0px; -webkit-text-stroke-width: 0px; white-space: normal; background-color: rgb(247, 247, 247); text-decoration-thickness: initial; text-decoration-style: initial; text-decoration-color: initial;&quot;&gt;" id="3l4uTkI3BJ61R9vHj9WP-53">
          <mxCell style="text;whiteSpace=wrap;html=1;" vertex="1" parent="1">
            <mxGeometry x="-35" y="30" width="75" height="90" as="geometry" />
          </mxCell>
        </UserObject>
      </root>
    </mxGraphModel>
  </diagram>
</mxfile>
